<svg xmlns="http://www.w3.org/2000/svg" viewBox="0 0 25 25"><defs><style>.cls-1{fill:#fff;}</style></defs><g id="diseño"><path class="cls-1" d="M14.77,12.5a2.27,2.27,0,1,1-2.27-2.27A2.26,2.26,0,0,1,14.77,12.5Z"/><path class="cls-1" d="M17.82,8.48a2.23,2.23,0,0,0-1.3-1.3A3.87,3.87,0,0,0,15.26,7c-.72,0-.94,0-2.76,0s-2,0-2.76,0a3.87,3.87,0,0,0-1.26.23,2.23,2.23,0,0,0-1.3,1.3A3.87,3.87,0,0,0,7,9.74c0,.72,0,.94,0,2.76s0,2,0,2.76a3.87,3.87,0,0,0,.23,1.26,2.23,2.23,0,0,0,1.3,1.3,3.87,3.87,0,0,0,1.26.23c.72,0,.94,0,2.76,0s2,0,2.76,0a3.87,3.87,0,0,0,1.26-.23,2.25,2.25,0,0,0,1.3-1.3,3.87,3.87,0,0,0,.23-1.26c0-.72,0-.94,0-2.76s0-2,0-2.76A3.87,3.87,0,0,0,17.82,8.48ZM12.5,16A3.5,3.5,0,1,1,16,12.5,3.5,3.5,0,0,1,12.5,16Zm3.64-6.32A.82.82,0,1,1,17,8.86.82.82,0,0,1,16.14,9.68Z"/><path class="cls-1" d="M12.5.62A11.88,11.88,0,1,0,24.38,12.5,11.88,11.88,0,0,0,12.5.62Zm6.78,14.69A4.92,4.92,0,0,1,19,17a3.48,3.48,0,0,1-2,2,4.92,4.92,0,0,1-1.66.32c-.72,0-1,0-2.81,0s-2.08,0-2.81,0A4.92,4.92,0,0,1,8,19a3.41,3.41,0,0,1-2-2,4.92,4.92,0,0,1-.32-1.66c0-.72,0-1,0-2.81s0-2.08,0-2.81A4.92,4.92,0,0,1,6,8,3.41,3.41,0,0,1,8,6a4.92,4.92,0,0,1,1.66-.32c.73,0,1,0,2.81,0s2.08,0,2.81,0A4.92,4.92,0,0,1,17,6a3.41,3.41,0,0,1,2,2,4.92,4.92,0,0,1,.32,1.66c0,.73,0,1,0,2.81S19.31,14.59,19.28,15.31Z"/></g></svg>