<svg xmlns="http://www.w3.org/2000/svg" viewBox="0 0 25 25"><defs><style>.cls-1{fill:#fff;}</style></defs><g id="diseño"><path class="cls-1" d="M11,14.73l3.86-2.23L11,10.27Z"/><path class="cls-1" d="M12.5.62A11.88,11.88,0,1,0,24.38,12.5,11.88,11.88,0,0,0,12.5.62Zm7.42,11.89a20,20,0,0,1-.3,3.57,1.86,1.86,0,0,1-1.31,1.31,44.55,44.55,0,0,1-5.81.31,43.32,43.32,0,0,1-5.81-.32,1.86,1.86,0,0,1-1.31-1.31,19.89,19.89,0,0,1-.3-3.57,20,20,0,0,1,.3-3.57A1.89,1.89,0,0,1,6.69,7.61,44.55,44.55,0,0,1,12.5,7.3a43.17,43.17,0,0,1,5.81.32,1.86,1.86,0,0,1,1.31,1.31A18.24,18.24,0,0,1,19.92,12.51Z"/></g></svg>