<svg id="Capa_1" data-name="Capa 1" xmlns="http://www.w3.org/2000/svg" viewBox="0 0 160 23.12"><defs><style>.cls-1{fill:#fff;}.cls-2{fill:#29abe2;}</style></defs><path class="cls-1" d="M12.23,11.89H7.7L5.31,16.66H7.1l0,.42H3.5l0-.42H4.74l7.6-15H15l2.16,15h1.31l0,.42H11.53l0-.42h1.19ZM7.94,11.4h4.25l-.82-6.69Z"/><path class="cls-1" d="M25.58,15.07c0-1.21-1-1.5-2.47-2.05-1.26-.47-2.63-1.2-2.63-3,0-2.43,2.34-3.65,5.39-3.65,1.79,0,4,.29,4,2.21A1.63,1.63,0,0,1,28,10.21c-.77,0-1.5-.4-1.5-1.06a1.63,1.63,0,0,1,.33-1h.71a1.32,1.32,0,0,0,.13-.53c0-.51-.48-.77-1.48-.77-1.66,0-2.34.7-2.34,1.48,0,1.08.77,1.39,2.23,2s3.12,1.15,3.12,3c0,2.7-2.5,4-5.79,4-2.48,0-4.14-.78-4.14-2.41a1.73,1.73,0,0,1,1.9-1.84,1.33,1.33,0,0,1,1.46,1.37,2.21,2.21,0,0,1-.2.91h-.88a1,1,0,0,0-.09.42c0,.57.53,1.06,1.77,1.06C25.14,16.82,25.58,15.8,25.58,15.07Z"/><path class="cls-1" d="M40.86,8.84c0,2.17-2.37,2.81-4.42,3.09a13.29,13.29,0,0,1-1.73.11c-.31,3.12.31,4.47,1.86,4.47,1.08,0,2.28-.77,3-3.18l.44.13c-.82,2.72-2.43,3.85-5.08,3.85-2.81,0-4.47-1.51-4.47-4.12,0-4.53,2.74-6.85,6.66-6.85C39.66,6.34,40.86,7.2,40.86,8.84ZM37,6.76c-1.2,0-1.88,2.19-2.21,4.86,1.5-.06,2.87-.79,2.87-3.51C37.63,7.29,37.5,6.76,37,6.76Z"/><path class="cls-1" d="M43.42,20.71c-.2.91.24,1.39,1.24,1.39,1.7,0,2.63-1.19,3.58-5,.13-.57.22-.9.37-1.63l-.08,0a3.55,3.55,0,0,1-3.41,1.93c-2.27,0-3.49-1.24-3.49-3.78,0-3.34,1.28-7.19,5.3-7.19A2.56,2.56,0,0,1,49.52,8l.31-1.31a26.35,26.35,0,0,0,4.05-.2c-.47,2.26-.76,3.41-1.64,9.22-.71,4.69-3.54,6.94-7.52,6.94-1.94,0-3.93-.77-3.93-2.56a2,2,0,0,1,2.06-2.17c1.1,0,2.12.64,1.83,2.45Zm5-6.57a15.45,15.45,0,0,0,.82-4.73c0-1.43-.49-2.32-1.26-2.32s-1.26.8-1.66,2.26a20.88,20.88,0,0,0-.8,5.46c0,.82.18,1.63,1,1.63C47.2,16.44,47.89,15.76,48.44,14.14Z"/><path class="cls-1" d="M56.77,7h-1.5l.06-.4H61c-1,4.14-1.5,6.63-1.74,8.23-.09.55-.22,1.28.53,1.28,1,0,2.1-2.28,2.69-5.48A23.13,23.13,0,0,0,63,6.78a39.91,39.91,0,0,0,4.42-.26c-.55,2.67-1.32,6.52-1.57,8.53-.09.73-.17,1.42.51,1.42.4,0,.86-.34,1.46-1.24l.35.26A3.42,3.42,0,0,1,65,17.31c-2.48,0-3.29-1.26-2.54-3.78l-.13,0c-.8,2.15-1.91,3.83-4.45,3.83-2.1,0-2.78-1.46-2.43-3.36S56.48,8.31,56.77,7Z"/><path class="cls-1" d="M69.79,12.73,70.59,7H69.08l.07-.4h5.46l-1,4.16.11,0c.64-1.7,2.23-4.4,4.71-4.4a1.87,1.87,0,0,1,2,2,2,2,0,0,1-2.1,2.14,3.36,3.36,0,0,1-1.52-.37l-.14-1.84c-1.19,0-2.36,1.66-2.91,4.07A22.36,22.36,0,0,0,73.24,17a37.23,37.23,0,0,0-4.44.29Z"/><path class="cls-1" d="M93.57,15.43a3.32,3.32,0,0,1-3,1.88c-2.19,0-3-1.11-2.65-2.9l-.11,0c-.6,1.72-1.73,2.92-3.65,2.92-2.56,0-3.56-1.49-3.56-3.85,0-4.07,1.86-7.12,5.44-7.12,1.64,0,2.14.62,2.48,1.46l.31-1.17a26.13,26.13,0,0,0,4-.18c-.55,2.72-1.13,5.29-1.61,8.49a5.42,5.42,0,0,0-.09.8c0,.57.26.7.57.7s.82-.22,1.46-1.21Zm-6-1.51a17.85,17.85,0,0,0,.77-5.15c0-1.32-.62-1.83-1.24-1.83s-1.12.62-1.57,2.16a24.63,24.63,0,0,0-.88,5.73c0,.75.09,1.61,1,1.61C86.24,16.44,87,15.67,87.52,13.92Z"/><path class="cls-1" d="M106,9.33c-.37,2.1-.73,3.93-1,5.61a5.42,5.42,0,0,0-.09.8c0,.57.26.7.57.7s.82-.22,1.46-1.21l.33.2a3.39,3.39,0,0,1-3,1.88c-2.19,0-3-1.11-2.65-2.9l-.12,0c-.59,1.72-1.72,2.92-3.64,2.92-2.57,0-3.56-1.49-3.56-3.85,0-4.07,1.86-7.12,5.44-7.12A2.36,2.36,0,0,1,102.24,8L103.32.9h-1.44L102,.51h5.62Zm-4.84,4.59a17.52,17.52,0,0,0,.78-5.15c0-1.32-.62-1.83-1.24-1.83s-1.13.62-1.57,2.16a24.11,24.11,0,0,0-.88,5.73c0,.75.08,1.61,1,1.61C99.85,16.44,100.6,15.67,101.13,13.92Z"/><path class="cls-1" d="M107.9,13.15c0-4,2.25-6.81,6.49-6.81,2.94,0,4.54,1.2,4.54,4,0,4.64-2.63,7-6.48,7C109.4,17.31,107.9,15.89,107.9,13.15Zm7.29-4.86c0-1-.26-1.55-.91-1.55-1.37,0-1.74,1.7-2.34,5.24a22.46,22.46,0,0,0-.35,3.45c0,1,.26,1.48,1,1.48,1.24,0,1.57-1.22,2.26-5.31A22.33,22.33,0,0,0,115.19,8.29Z"/><path class="cls-1" d="M125.87,15.07c0-1.21-1-1.5-2.48-2.05-1.26-.47-2.63-1.2-2.63-3,0-2.43,2.34-3.65,5.39-3.65,1.79,0,4,.29,4,2.21a1.63,1.63,0,0,1-1.83,1.66c-.78,0-1.51-.4-1.51-1.06a1.63,1.63,0,0,1,.33-1h.71a1.32,1.32,0,0,0,.13-.53c0-.51-.48-.77-1.48-.77-1.65,0-2.34.7-2.34,1.48,0,1.08.77,1.39,2.23,2s3.12,1.15,3.12,3c0,2.7-2.5,4-5.79,4-2.48,0-4.14-.78-4.14-2.41a1.73,1.73,0,0,1,1.91-1.84,1.32,1.32,0,0,1,1.45,1.37,2.36,2.36,0,0,1-.19.91h-.89a1.14,1.14,0,0,0-.09.42c0,.57.53,1.06,1.77,1.06C125.42,16.82,125.87,15.8,125.87,15.07Z"/><path class="cls-2" d="M135.19,15a2.14,2.14,0,0,1-2.25,2.33,1.52,1.52,0,0,1-1.66-1.64,2.18,2.18,0,0,1,2.23-2.17C134.53,13.5,135.19,14,135.19,15Z"/><path class="cls-2" d="M141.64,15.39a2.14,2.14,0,0,1-2.2,1.8c-1.43,0-2.15-.72-2.15-2a2.89,2.89,0,0,1,3.15-3.1c1.12,0,1.57.57,1.57,1.16a1,1,0,0,1-1,1.07.62.62,0,0,1-.71-.64,1.33,1.33,0,0,1,.15-.54h.43a1.28,1.28,0,0,0,.11-.47c0-.32-.22-.39-.42-.39-.66,0-1,.76-1.16,1.71a9.26,9.26,0,0,0-.17,1.63c0,.84.25,1.18.8,1.18s1.08-.4,1.37-1.49Z"/><path class="cls-2" d="M142.25,15.27a2.86,2.86,0,0,1,3-3.15c1.36,0,2.09.56,2.09,1.84,0,2.14-1.21,3.23-3,3.23C142.94,17.19,142.25,16.53,142.25,15.27ZM145.62,13c0-.46-.12-.71-.42-.71-.63,0-.81.78-1.08,2.42a9.46,9.46,0,0,0-.17,1.59c0,.47.13.68.46.68.57,0,.73-.56,1-2.45A9.41,9.41,0,0,0,145.62,13Z"/><path class="cls-2" d="M151.54,13.56c.17-.66.19-.92-.09-.92s-.57.25-.95,1.07a9,9,0,0,0-.69,3.34,19.42,19.42,0,0,0-2,.11l.43-1.9.42-2.85h-.7l0-.18h2.58l-.4,1.69h0c.46-1,.94-1.81,2.11-1.81.67,0,.93.34.93.84a2.55,2.55,0,0,1-.15.76h0a2.23,2.23,0,0,1,2-1.61.94.94,0,0,1,1.06,1A3.77,3.77,0,0,1,156,14l-.48,1.92a4.37,4.37,0,0,0-.12.64c0,.21.12.25.26.25s.39-.17.65-.59l.17.1a1.61,1.61,0,0,1-1.51.91c-.78,0-1.34-.33-1.34-1.2a11,11,0,0,1,.6-2.43c.18-.48.35-.92,0-.92-.22,0-.52.32-.82.91a10.25,10.25,0,0,0-.84,3.5,17.32,17.32,0,0,0-1.94.11C150.9,15.94,151.21,14.84,151.54,13.56Z"/></svg>